<mxfile host="Electron" agent="Mozilla/5.0 (Windows NT 10.0; Win64; x64) AppleWebKit/537.36 (KHTML, like Gecko) draw.io/26.1.1 Chrome/132.0.6834.210 Electron/34.3.3 Safari/537.36" version="26.1.1">
  <diagram name="Page-1" id="EN14dxH6_i5rPOAZoOzE">
    <mxGraphModel dx="1036" dy="702" grid="1" gridSize="10" guides="1" tooltips="1" connect="1" arrows="1" fold="1" page="1" pageScale="1" pageWidth="850" pageHeight="1100" math="0" shadow="0">
      <root>
        <mxCell id="0" />
        <mxCell id="1" parent="0" />
        <mxCell id="tyqhJ8zjRIvEblvX_bp2-5" value="" style="rounded=0;whiteSpace=wrap;html=1;sketch=1;curveFitting=1;jiggle=2;fillColor=#f5f5f5;fontColor=#333333;strokeColor=#666666;" vertex="1" parent="1">
          <mxGeometry x="41" y="258" width="80" height="80" as="geometry" />
        </mxCell>
        <mxCell id="tyqhJ8zjRIvEblvX_bp2-6" value="&lt;b&gt;&lt;font face=&quot;Comic Sans MS&quot; style=&quot;font-size: 15px;&quot;&gt;customers&lt;/font&gt;&lt;/b&gt;" style="text;html=1;align=center;verticalAlign=middle;whiteSpace=wrap;rounded=0;" vertex="1" parent="1">
          <mxGeometry x="51" y="218" width="60" height="30" as="geometry" />
        </mxCell>
        <mxCell id="tyqhJ8zjRIvEblvX_bp2-8" value="&lt;b&gt;&lt;font face=&quot;Comic Sans MS&quot; style=&quot;font-size: 15px;&quot;&gt;orders&lt;/font&gt;&lt;/b&gt;" style="text;html=1;align=center;verticalAlign=middle;whiteSpace=wrap;rounded=0;" vertex="1" parent="1">
          <mxGeometry x="170" y="268" width="60" height="30" as="geometry" />
        </mxCell>
        <mxCell id="tyqhJ8zjRIvEblvX_bp2-10" value="&lt;b&gt;&lt;font face=&quot;Comic Sans MS&quot; style=&quot;font-size: 15px;&quot;&gt;products&lt;/font&gt;&lt;/b&gt;" style="text;html=1;align=center;verticalAlign=middle;whiteSpace=wrap;rounded=0;" vertex="1" parent="1">
          <mxGeometry x="51" y="358" width="60" height="30" as="geometry" />
        </mxCell>
        <mxCell id="tyqhJ8zjRIvEblvX_bp2-12" value="" style="endArrow=none;html=1;rounded=0;sketch=1;curveFitting=1;jiggle=2;" edge="1" parent="1">
          <mxGeometry width="50" height="50" relative="1" as="geometry">
            <mxPoint x="41" y="282.29" as="sourcePoint" />
            <mxPoint x="120" y="282" as="targetPoint" />
          </mxGeometry>
        </mxCell>
        <mxCell id="tyqhJ8zjRIvEblvX_bp2-13" value="" style="rounded=0;whiteSpace=wrap;html=1;sketch=1;curveFitting=1;jiggle=2;fillColor=#f5f5f5;fontColor=#333333;strokeColor=#666666;" vertex="1" parent="1">
          <mxGeometry x="160" y="309" width="80" height="80" as="geometry" />
        </mxCell>
        <mxCell id="tyqhJ8zjRIvEblvX_bp2-14" value="" style="endArrow=none;html=1;rounded=0;sketch=1;curveFitting=1;jiggle=2;" edge="1" parent="1">
          <mxGeometry width="50" height="50" relative="1" as="geometry">
            <mxPoint x="160" y="333.29" as="sourcePoint" />
            <mxPoint x="239" y="333" as="targetPoint" />
          </mxGeometry>
        </mxCell>
        <mxCell id="tyqhJ8zjRIvEblvX_bp2-15" value="" style="rounded=0;whiteSpace=wrap;html=1;sketch=1;curveFitting=1;jiggle=2;fillColor=#f5f5f5;fontColor=#333333;strokeColor=#666666;" vertex="1" parent="1">
          <mxGeometry x="41" y="398" width="80" height="80" as="geometry" />
        </mxCell>
        <mxCell id="tyqhJ8zjRIvEblvX_bp2-16" value="" style="endArrow=none;html=1;rounded=0;sketch=1;curveFitting=1;jiggle=2;" edge="1" parent="1">
          <mxGeometry width="50" height="50" relative="1" as="geometry">
            <mxPoint x="41" y="422.29" as="sourcePoint" />
            <mxPoint x="120" y="422" as="targetPoint" />
          </mxGeometry>
        </mxCell>
        <mxCell id="tyqhJ8zjRIvEblvX_bp2-17" value="" style="endArrow=classic;html=1;rounded=0;sketch=1;curveFitting=1;jiggle=2;" edge="1" parent="1">
          <mxGeometry width="50" height="50" relative="1" as="geometry">
            <mxPoint x="171" y="378" as="sourcePoint" />
            <mxPoint x="111" y="428" as="targetPoint" />
          </mxGeometry>
        </mxCell>
        <mxCell id="tyqhJ8zjRIvEblvX_bp2-19" value="&lt;b&gt;has&lt;/b&gt;" style="edgeLabel;html=1;align=center;verticalAlign=middle;resizable=0;points=[];" vertex="1" connectable="0" parent="tyqhJ8zjRIvEblvX_bp2-17">
          <mxGeometry x="0.0112" y="-4" relative="1" as="geometry">
            <mxPoint x="1" as="offset" />
          </mxGeometry>
        </mxCell>
        <mxCell id="tyqhJ8zjRIvEblvX_bp2-18" value="" style="endArrow=classic;html=1;rounded=0;sketch=1;curveFitting=1;jiggle=2;exitX=0.25;exitY=0.5;exitDx=0;exitDy=0;exitPerimeter=0;entryX=1.045;entryY=0.357;entryDx=0;entryDy=0;entryPerimeter=0;" edge="1" parent="1" target="tyqhJ8zjRIvEblvX_bp2-5">
          <mxGeometry width="50" height="50" relative="1" as="geometry">
            <mxPoint x="180" y="348" as="sourcePoint" />
            <mxPoint x="110" y="328" as="targetPoint" />
          </mxGeometry>
        </mxCell>
        <mxCell id="tyqhJ8zjRIvEblvX_bp2-20" value="&lt;b&gt;creates&lt;/b&gt;" style="edgeLabel;html=1;align=center;verticalAlign=middle;resizable=0;points=[];" vertex="1" connectable="0" parent="tyqhJ8zjRIvEblvX_bp2-18">
          <mxGeometry x="0.3781" relative="1" as="geometry">
            <mxPoint as="offset" />
          </mxGeometry>
        </mxCell>
        <mxCell id="tyqhJ8zjRIvEblvX_bp2-37" style="edgeStyle=orthogonalEdgeStyle;rounded=0;orthogonalLoop=1;jettySize=auto;html=1;exitX=1;exitY=0.5;exitDx=0;exitDy=0;entryX=0;entryY=0.5;entryDx=0;entryDy=0;endArrow=ERmany;endFill=0;startArrow=ERone;startFill=0;sketch=1;curveFitting=1;jiggle=2;" edge="1" parent="1" source="tyqhJ8zjRIvEblvX_bp2-21" target="tyqhJ8zjRIvEblvX_bp2-26">
          <mxGeometry relative="1" as="geometry" />
        </mxCell>
        <mxCell id="tyqhJ8zjRIvEblvX_bp2-21" value="" style="rounded=0;whiteSpace=wrap;html=1;sketch=1;curveFitting=1;jiggle=2;fillColor=#f5f5f5;fontColor=#333333;strokeColor=#666666;" vertex="1" parent="1">
          <mxGeometry x="326" y="267" width="80" height="80" as="geometry" />
        </mxCell>
        <mxCell id="tyqhJ8zjRIvEblvX_bp2-22" value="&lt;b&gt;&lt;font face=&quot;Comic Sans MS&quot; style=&quot;font-size: 15px;&quot;&gt;customers&lt;/font&gt;&lt;/b&gt;" style="text;html=1;align=center;verticalAlign=middle;whiteSpace=wrap;rounded=0;" vertex="1" parent="1">
          <mxGeometry x="336" y="227" width="60" height="30" as="geometry" />
        </mxCell>
        <mxCell id="tyqhJ8zjRIvEblvX_bp2-23" value="&lt;b&gt;&lt;font face=&quot;Comic Sans MS&quot; style=&quot;font-size: 15px;&quot;&gt;orders&lt;/font&gt;&lt;/b&gt;" style="text;html=1;align=center;verticalAlign=middle;whiteSpace=wrap;rounded=0;" vertex="1" parent="1">
          <mxGeometry x="455" y="277" width="60" height="30" as="geometry" />
        </mxCell>
        <mxCell id="tyqhJ8zjRIvEblvX_bp2-24" value="&lt;b&gt;&lt;font face=&quot;Comic Sans MS&quot; style=&quot;font-size: 15px;&quot;&gt;products&lt;/font&gt;&lt;/b&gt;" style="text;html=1;align=center;verticalAlign=middle;whiteSpace=wrap;rounded=0;" vertex="1" parent="1">
          <mxGeometry x="336" y="367" width="60" height="30" as="geometry" />
        </mxCell>
        <mxCell id="tyqhJ8zjRIvEblvX_bp2-25" value="" style="endArrow=none;html=1;rounded=0;sketch=1;curveFitting=1;jiggle=2;" edge="1" parent="1">
          <mxGeometry width="50" height="50" relative="1" as="geometry">
            <mxPoint x="326" y="291.29" as="sourcePoint" />
            <mxPoint x="405" y="291" as="targetPoint" />
          </mxGeometry>
        </mxCell>
        <mxCell id="tyqhJ8zjRIvEblvX_bp2-39" style="edgeStyle=orthogonalEdgeStyle;rounded=0;orthogonalLoop=1;jettySize=auto;html=1;exitX=0.5;exitY=1;exitDx=0;exitDy=0;entryX=1;entryY=0.75;entryDx=0;entryDy=0;endArrow=ERone;endFill=0;startArrow=ERmany;startFill=0;sketch=1;curveFitting=1;jiggle=2;" edge="1" parent="1" source="tyqhJ8zjRIvEblvX_bp2-26" target="tyqhJ8zjRIvEblvX_bp2-28">
          <mxGeometry relative="1" as="geometry" />
        </mxCell>
        <mxCell id="tyqhJ8zjRIvEblvX_bp2-26" value="" style="rounded=0;whiteSpace=wrap;html=1;sketch=1;curveFitting=1;jiggle=2;fillColor=#f5f5f5;fontColor=#333333;strokeColor=#666666;" vertex="1" parent="1">
          <mxGeometry x="445" y="317" width="80" height="80" as="geometry" />
        </mxCell>
        <mxCell id="tyqhJ8zjRIvEblvX_bp2-27" value="" style="endArrow=none;html=1;rounded=0;sketch=1;curveFitting=1;jiggle=2;" edge="1" parent="1">
          <mxGeometry width="50" height="50" relative="1" as="geometry">
            <mxPoint x="445" y="341.29" as="sourcePoint" />
            <mxPoint x="524" y="341" as="targetPoint" />
          </mxGeometry>
        </mxCell>
        <mxCell id="tyqhJ8zjRIvEblvX_bp2-28" value="" style="rounded=0;whiteSpace=wrap;html=1;sketch=1;curveFitting=1;jiggle=2;fillColor=#f5f5f5;fontColor=#333333;strokeColor=#666666;" vertex="1" parent="1">
          <mxGeometry x="326" y="407" width="80" height="80" as="geometry" />
        </mxCell>
        <mxCell id="tyqhJ8zjRIvEblvX_bp2-29" value="" style="endArrow=none;html=1;rounded=0;sketch=1;curveFitting=1;jiggle=2;" edge="1" parent="1">
          <mxGeometry width="50" height="50" relative="1" as="geometry">
            <mxPoint x="326" y="431.29" as="sourcePoint" />
            <mxPoint x="405" y="431" as="targetPoint" />
          </mxGeometry>
        </mxCell>
        <mxCell id="tyqhJ8zjRIvEblvX_bp2-34" value="&lt;b&gt;cust_id&lt;/b&gt;" style="text;html=1;align=center;verticalAlign=middle;whiteSpace=wrap;rounded=0;" vertex="1" parent="1">
          <mxGeometry x="326" y="265" width="60" height="30" as="geometry" />
        </mxCell>
        <mxCell id="tyqhJ8zjRIvEblvX_bp2-35" value="&lt;b&gt;ord_id&lt;/b&gt;" style="text;html=1;align=center;verticalAlign=middle;whiteSpace=wrap;rounded=0;" vertex="1" parent="1">
          <mxGeometry x="450" y="314" width="60" height="30" as="geometry" />
        </mxCell>
        <mxCell id="tyqhJ8zjRIvEblvX_bp2-36" value="&lt;b&gt;prd_id&lt;/b&gt;" style="text;html=1;align=center;verticalAlign=middle;whiteSpace=wrap;rounded=0;" vertex="1" parent="1">
          <mxGeometry x="326" y="403" width="60" height="30" as="geometry" />
        </mxCell>
        <mxCell id="tyqhJ8zjRIvEblvX_bp2-41" style="edgeStyle=orthogonalEdgeStyle;rounded=0;orthogonalLoop=1;jettySize=auto;html=1;exitX=1;exitY=0.5;exitDx=0;exitDy=0;entryX=0;entryY=0.5;entryDx=0;entryDy=0;endArrow=ERmany;endFill=0;startArrow=ERone;startFill=0;sketch=1;curveFitting=1;jiggle=2;" edge="1" parent="1" source="tyqhJ8zjRIvEblvX_bp2-42" target="tyqhJ8zjRIvEblvX_bp2-48">
          <mxGeometry relative="1" as="geometry" />
        </mxCell>
        <mxCell id="tyqhJ8zjRIvEblvX_bp2-42" value="" style="rounded=0;whiteSpace=wrap;html=1;sketch=1;curveFitting=1;jiggle=2;fillColor=#f5f5f5;fontColor=#333333;strokeColor=#666666;" vertex="1" parent="1">
          <mxGeometry x="590" y="258" width="80" height="80" as="geometry" />
        </mxCell>
        <mxCell id="tyqhJ8zjRIvEblvX_bp2-43" value="&lt;b&gt;&lt;font face=&quot;Comic Sans MS&quot; style=&quot;font-size: 15px;&quot;&gt;customers&lt;/font&gt;&lt;/b&gt;" style="text;html=1;align=center;verticalAlign=middle;whiteSpace=wrap;rounded=0;" vertex="1" parent="1">
          <mxGeometry x="600" y="218" width="60" height="30" as="geometry" />
        </mxCell>
        <mxCell id="tyqhJ8zjRIvEblvX_bp2-44" value="&lt;b&gt;&lt;font face=&quot;Comic Sans MS&quot; style=&quot;font-size: 15px;&quot;&gt;orders&lt;/font&gt;&lt;/b&gt;" style="text;html=1;align=center;verticalAlign=middle;whiteSpace=wrap;rounded=0;" vertex="1" parent="1">
          <mxGeometry x="719" y="268" width="60" height="30" as="geometry" />
        </mxCell>
        <mxCell id="tyqhJ8zjRIvEblvX_bp2-45" value="&lt;b&gt;&lt;font face=&quot;Comic Sans MS&quot; style=&quot;font-size: 15px;&quot;&gt;products&lt;/font&gt;&lt;/b&gt;" style="text;html=1;align=center;verticalAlign=middle;whiteSpace=wrap;rounded=0;" vertex="1" parent="1">
          <mxGeometry x="600" y="358" width="60" height="30" as="geometry" />
        </mxCell>
        <mxCell id="tyqhJ8zjRIvEblvX_bp2-46" value="" style="endArrow=none;html=1;rounded=0;sketch=1;curveFitting=1;jiggle=2;" edge="1" parent="1">
          <mxGeometry width="50" height="50" relative="1" as="geometry">
            <mxPoint x="590" y="282.29" as="sourcePoint" />
            <mxPoint x="669" y="282" as="targetPoint" />
          </mxGeometry>
        </mxCell>
        <mxCell id="tyqhJ8zjRIvEblvX_bp2-47" style="edgeStyle=orthogonalEdgeStyle;rounded=0;orthogonalLoop=1;jettySize=auto;html=1;exitX=0.5;exitY=1;exitDx=0;exitDy=0;entryX=1;entryY=0.75;entryDx=0;entryDy=0;endArrow=ERone;endFill=0;startArrow=ERmany;startFill=0;sketch=1;curveFitting=1;jiggle=2;" edge="1" parent="1" source="tyqhJ8zjRIvEblvX_bp2-48" target="tyqhJ8zjRIvEblvX_bp2-50">
          <mxGeometry relative="1" as="geometry" />
        </mxCell>
        <mxCell id="tyqhJ8zjRIvEblvX_bp2-48" value="" style="rounded=0;whiteSpace=wrap;html=1;sketch=1;curveFitting=1;jiggle=2;fillColor=#f5f5f5;fontColor=#333333;strokeColor=#666666;" vertex="1" parent="1">
          <mxGeometry x="709" y="308" width="80" height="80" as="geometry" />
        </mxCell>
        <mxCell id="tyqhJ8zjRIvEblvX_bp2-49" value="" style="endArrow=none;html=1;rounded=0;sketch=1;curveFitting=1;jiggle=2;" edge="1" parent="1">
          <mxGeometry width="50" height="50" relative="1" as="geometry">
            <mxPoint x="709" y="332.29" as="sourcePoint" />
            <mxPoint x="788" y="332" as="targetPoint" />
          </mxGeometry>
        </mxCell>
        <mxCell id="tyqhJ8zjRIvEblvX_bp2-50" value="" style="rounded=0;whiteSpace=wrap;html=1;sketch=1;curveFitting=1;jiggle=2;fillColor=#f5f5f5;fontColor=#333333;strokeColor=#666666;" vertex="1" parent="1">
          <mxGeometry x="590" y="398" width="80" height="80" as="geometry" />
        </mxCell>
        <mxCell id="tyqhJ8zjRIvEblvX_bp2-51" value="" style="endArrow=none;html=1;rounded=0;sketch=1;curveFitting=1;jiggle=2;" edge="1" parent="1">
          <mxGeometry width="50" height="50" relative="1" as="geometry">
            <mxPoint x="590" y="422.29" as="sourcePoint" />
            <mxPoint x="669" y="422" as="targetPoint" />
          </mxGeometry>
        </mxCell>
        <mxCell id="tyqhJ8zjRIvEblvX_bp2-52" value="&lt;b&gt;cust_id&lt;/b&gt;" style="text;html=1;align=center;verticalAlign=middle;whiteSpace=wrap;rounded=0;" vertex="1" parent="1">
          <mxGeometry x="590" y="256" width="60" height="30" as="geometry" />
        </mxCell>
        <mxCell id="tyqhJ8zjRIvEblvX_bp2-53" value="&lt;b&gt;ord_id&lt;/b&gt;" style="text;html=1;align=center;verticalAlign=middle;whiteSpace=wrap;rounded=0;" vertex="1" parent="1">
          <mxGeometry x="714" y="305" width="60" height="30" as="geometry" />
        </mxCell>
        <mxCell id="tyqhJ8zjRIvEblvX_bp2-54" value="&lt;b&gt;prd_id&lt;/b&gt;" style="text;html=1;align=center;verticalAlign=middle;whiteSpace=wrap;rounded=0;" vertex="1" parent="1">
          <mxGeometry x="590" y="394" width="60" height="30" as="geometry" />
        </mxCell>
        <mxCell id="tyqhJ8zjRIvEblvX_bp2-55" value="&lt;font style=&quot;font-size: 7px;&quot;&gt;&lt;b&gt;column datatype&lt;/b&gt;&lt;/font&gt;" style="text;html=1;align=center;verticalAlign=middle;whiteSpace=wrap;rounded=0;" vertex="1" parent="1">
          <mxGeometry x="594" y="285" width="60" height="30" as="geometry" />
        </mxCell>
        <mxCell id="tyqhJ8zjRIvEblvX_bp2-56" value="&lt;font style=&quot;font-size: 7px;&quot;&gt;&lt;b&gt;column datatype&lt;/b&gt;&lt;/font&gt;" style="text;html=1;align=center;verticalAlign=middle;whiteSpace=wrap;rounded=0;" vertex="1" parent="1">
          <mxGeometry x="714" y="333" width="60" height="30" as="geometry" />
        </mxCell>
        <mxCell id="tyqhJ8zjRIvEblvX_bp2-57" value="&lt;font style=&quot;font-size: 7px;&quot;&gt;&lt;b&gt;column datatype&lt;/b&gt;&lt;/font&gt;" style="text;html=1;align=center;verticalAlign=middle;whiteSpace=wrap;rounded=0;" vertex="1" parent="1">
          <mxGeometry x="594" y="423" width="60" height="30" as="geometry" />
        </mxCell>
        <mxCell id="tyqhJ8zjRIvEblvX_bp2-58" value="&lt;font style=&quot;font-size: 7px;&quot;&gt;&lt;b&gt;rest of columns...&lt;/b&gt;&lt;/font&gt;&lt;span style=&quot;color: rgba(0, 0, 0, 0); font-family: monospace; font-size: 0px; text-align: start; text-wrap-mode: nowrap;&quot;&gt;%3CmxGraphModel%3E%3Croot%3E%3CmxCell%20id%3D%220%22%2F%3E%3CmxCell%20id%3D%221%22%20parent%3D%220%22%2F%3E%3CmxCell%20id%3D%222%22%20value%3D%22%26lt%3Bfont%20style%3D%26quot%3Bfont-size%3A%207px%3B%26quot%3B%26gt%3B%26lt%3Bb%26gt%3Bcolumn%20datatype%26lt%3B%2Fb%26gt%3B%26lt%3B%2Ffont%26gt%3B%22%20style%3D%22text%3Bhtml%3D1%3Balign%3Dcenter%3BverticalAlign%3Dmiddle%3BwhiteSpace%3Dwrap%3Brounded%3D0%3B%22%20vertex%3D%221%22%20parent%3D%221%22%3E%3CmxGeometry%20x%3D%22594%22%20y%3D%22307%22%20width%3D%2260%22%20height%3D%2230%22%20as%3D%22geometry%22%2F%3E%3C%2FmxCell%3E%3C%2Froot%3E%3C%2FmxGraphModel%3E&lt;/span&gt;" style="text;html=1;align=center;verticalAlign=middle;whiteSpace=wrap;rounded=0;" vertex="1" parent="1">
          <mxGeometry x="594" y="303" width="60" height="30" as="geometry" />
        </mxCell>
        <mxCell id="tyqhJ8zjRIvEblvX_bp2-59" value="&lt;font style=&quot;font-size: 7px;&quot;&gt;&lt;b&gt;rest of columns...&lt;/b&gt;&lt;/font&gt;&lt;span style=&quot;color: rgba(0, 0, 0, 0); font-family: monospace; font-size: 0px; text-align: start; text-wrap-mode: nowrap;&quot;&gt;%3CmxGraphModel%3E%3Croot%3E%3CmxCell%20id%3D%220%22%2F%3E%3CmxCell%20id%3D%221%22%20parent%3D%220%22%2F%3E%3CmxCell%20id%3D%222%22%20value%3D%22%26lt%3Bfont%20style%3D%26quot%3Bfont-size%3A%207px%3B%26quot%3B%26gt%3B%26lt%3Bb%26gt%3Bcolumn%20datatype%26lt%3B%2Fb%26gt%3B%26lt%3B%2Ffont%26gt%3B%22%20style%3D%22text%3Bhtml%3D1%3Balign%3Dcenter%3BverticalAlign%3Dmiddle%3BwhiteSpace%3Dwrap%3Brounded%3D0%3B%22%20vertex%3D%221%22%20parent%3D%221%22%3E%3CmxGeometry%20x%3D%22594%22%20y%3D%22307%22%20width%3D%2260%22%20height%3D%2230%22%20as%3D%22geometry%22%2F%3E%3C%2FmxCell%3E%3C%2Froot%3E%3C%2FmxGraphModel%3E&lt;/span&gt;" style="text;html=1;align=center;verticalAlign=middle;whiteSpace=wrap;rounded=0;" vertex="1" parent="1">
          <mxGeometry x="716" y="348" width="60" height="30" as="geometry" />
        </mxCell>
        <mxCell id="tyqhJ8zjRIvEblvX_bp2-60" value="&lt;font style=&quot;font-size: 7px;&quot;&gt;&lt;b&gt;rest of columns...&lt;/b&gt;&lt;/font&gt;&lt;span style=&quot;color: rgba(0, 0, 0, 0); font-family: monospace; font-size: 0px; text-align: start; text-wrap-mode: nowrap;&quot;&gt;%3CmxGraphModel%3E%3Croot%3E%3CmxCell%20id%3D%220%22%2F%3E%3CmxCell%20id%3D%221%22%20parent%3D%220%22%2F%3E%3CmxCell%20id%3D%222%22%20value%3D%22%26lt%3Bfont%20style%3D%26quot%3Bfont-size%3A%207px%3B%26quot%3B%26gt%3B%26lt%3Bb%26gt%3Bcolumn%20datatype%26lt%3B%2Fb%26gt%3B%26lt%3B%2Ffont%26gt%3B%22%20style%3D%22text%3Bhtml%3D1%3Balign%3Dcenter%3BverticalAlign%3Dmiddle%3BwhiteSpace%3Dwrap%3Brounded%3D0%3B%22%20vertex%3D%221%22%20parent%3D%221%22%3E%3CmxGeometry%20x%3D%22594%22%20y%3D%22307%22%20width%3D%2260%22%20height%3D%2230%22%20as%3D%22geometry%22%2F%3E%3C%2FmxCell%3E%3C%2Froot%3E%3C%2FmxGraphModel%3E&lt;/span&gt;" style="text;html=1;align=center;verticalAlign=middle;whiteSpace=wrap;rounded=0;" vertex="1" parent="1">
          <mxGeometry x="595" y="443" width="60" height="30" as="geometry" />
        </mxCell>
        <mxCell id="tyqhJ8zjRIvEblvX_bp2-61" value="" style="endArrow=none;html=1;rounded=0;sketch=1;curveFitting=1;jiggle=2;fillColor=#f5f5f5;strokeColor=#666666;" edge="1" parent="1">
          <mxGeometry width="50" height="50" relative="1" as="geometry">
            <mxPoint x="280" y="600" as="sourcePoint" />
            <mxPoint x="280" y="90" as="targetPoint" />
          </mxGeometry>
        </mxCell>
        <mxCell id="tyqhJ8zjRIvEblvX_bp2-62" value="" style="endArrow=none;html=1;rounded=0;sketch=1;curveFitting=1;jiggle=2;fillColor=#f5f5f5;strokeColor=#666666;" edge="1" parent="1">
          <mxGeometry width="50" height="50" relative="1" as="geometry">
            <mxPoint x="559" y="600" as="sourcePoint" />
            <mxPoint x="557" y="90" as="targetPoint" />
          </mxGeometry>
        </mxCell>
        <mxCell id="tyqhJ8zjRIvEblvX_bp2-63" value="&lt;b&gt;&lt;font face=&quot;Comic Sans MS&quot; style=&quot;font-size: 21px; background-color: light-dark(#ffffff, var(--ge-dark-color, #121212));&quot;&gt;Conceptual&lt;/font&gt;&lt;/b&gt;&lt;div&gt;&lt;b&gt;&lt;font face=&quot;Comic Sans MS&quot; style=&quot;font-size: 21px; background-color: light-dark(#ffffff, var(--ge-dark-color, #121212));&quot;&gt;Data Model&lt;/font&gt;&lt;/b&gt;&lt;/div&gt;" style="text;html=1;align=center;verticalAlign=middle;whiteSpace=wrap;rounded=0;fillColor=none;strokeColor=none;" vertex="1" parent="1">
          <mxGeometry x="60" y="140" width="149" height="30" as="geometry" />
        </mxCell>
        <mxCell id="tyqhJ8zjRIvEblvX_bp2-64" value="&lt;b&gt;&lt;font face=&quot;Comic Sans MS&quot; style=&quot;font-size: 21px; background-color: light-dark(#ffffff, var(--ge-dark-color, #121212));&quot;&gt;Logical&lt;/font&gt;&lt;/b&gt;&lt;div&gt;&lt;b&gt;&lt;font face=&quot;Comic Sans MS&quot; style=&quot;font-size: 21px; background-color: light-dark(#ffffff, var(--ge-dark-color, #121212));&quot;&gt;Data Model&lt;/font&gt;&lt;/b&gt;&lt;/div&gt;" style="text;html=1;align=center;verticalAlign=middle;whiteSpace=wrap;rounded=0;fillColor=none;strokeColor=none;" vertex="1" parent="1">
          <mxGeometry x="351" y="140" width="149" height="30" as="geometry" />
        </mxCell>
        <mxCell id="tyqhJ8zjRIvEblvX_bp2-65" value="&lt;div&gt;&lt;b&gt;&lt;font face=&quot;Comic Sans MS&quot; style=&quot;font-size: 21px; background-color: light-dark(#ffffff, var(--ge-dark-color, #121212));&quot;&gt;Physical&lt;/font&gt;&lt;/b&gt;&lt;/div&gt;&lt;div&gt;&lt;b&gt;&lt;font face=&quot;Comic Sans MS&quot; style=&quot;font-size: 21px; background-color: light-dark(#ffffff, var(--ge-dark-color, #121212));&quot;&gt;Data Model&lt;/font&gt;&lt;/b&gt;&lt;/div&gt;" style="text;html=1;align=center;verticalAlign=middle;whiteSpace=wrap;rounded=0;fillColor=none;strokeColor=none;" vertex="1" parent="1">
          <mxGeometry x="626" y="137" width="149" height="30" as="geometry" />
        </mxCell>
        <mxCell id="tyqhJ8zjRIvEblvX_bp2-66" value="&lt;b&gt;&lt;font face=&quot;Comic Sans MS&quot; style=&quot;font-size: 16px;&quot;&gt;Big picture&lt;/font&gt;&lt;/b&gt;" style="rounded=0;whiteSpace=wrap;html=1;fillColor=#fff2cc;strokeColor=#d6b656;sketch=1;curveFitting=1;jiggle=2;" vertex="1" parent="1">
          <mxGeometry x="60" y="528" width="135.5" height="40" as="geometry" />
        </mxCell>
        <mxCell id="tyqhJ8zjRIvEblvX_bp2-67" value="&lt;b&gt;&lt;font face=&quot;Comic Sans MS&quot; style=&quot;font-size: 16px;&quot;&gt;Blueprint&lt;/font&gt;&lt;/b&gt;" style="rounded=0;whiteSpace=wrap;html=1;fillColor=#dae8fc;strokeColor=#6c8ebf;sketch=1;curveFitting=1;jiggle=2;" vertex="1" parent="1">
          <mxGeometry x="364.5" y="527" width="135.5" height="40" as="geometry" />
        </mxCell>
        <mxCell id="tyqhJ8zjRIvEblvX_bp2-68" value="&lt;b&gt;&lt;font face=&quot;Comic Sans MS&quot; style=&quot;font-size: 16px;&quot;&gt;Implementation&lt;/font&gt;&lt;/b&gt;" style="rounded=0;whiteSpace=wrap;html=1;fillColor=#d5e8d4;strokeColor=#82b366;sketch=1;curveFitting=1;jiggle=2;" vertex="1" parent="1">
          <mxGeometry x="620" y="528" width="148.25" height="40" as="geometry" />
        </mxCell>
      </root>
    </mxGraphModel>
  </diagram>
</mxfile>
